<?xml version="1.0" encoding="utf-8"?>
<!-- Generator: Adobe Illustrator 26.1.0, SVG Export Plug-In . SVG Version: 6.00 Build 0)  -->
<svg version="1.1" id="Layer_1" xmlns="http://www.w3.org/2000/svg" xmlns:xlink="http://www.w3.org/1999/xlink" x="0px" y="0px"
	 viewBox="0 0 1920 1080" style="enable-background:new 0 0 1920 1080;" xml:space="preserve">
<style type="text/css">
	.st0{fill:#252625;}
	.st1{font-family:'Gotham-Medium';}
	.st2{font-size:452.7581px;}
	.st3{fill-rule:evenodd;clip-rule:evenodd;fill:#12D64E;}
	.st4{fill-rule:evenodd;clip-rule:evenodd;fill:#FF2300;}
	.st5{fill-rule:evenodd;clip-rule:evenodd;fill:url(#SVGID_1_);}
	.st6{fill-rule:evenodd;clip-rule:evenodd;fill:#EDE20A;}
	.st7{fill-rule:evenodd;clip-rule:evenodd;fill:url(#SVGID_00000000206445309304169900000015581922299091972994_);}
	.st8{fill:url(#SVGID_00000071541118497671274130000012063110934173804468_);}
	.st9{font-family:'Gotham-Book';}
	.st10{font-size:128.5012px;}
</style>
<text transform="matrix(1 0 0 1 564.9927 656.4426)" class="st0 st1 st2">Tese</text>
<g>
	<path class="st3" d="M296.32,390.48c17.06,39.31,146.78,93.73,171.23,124.43c-64.6,34.27-83.92,50.64-155.89,70.94
		c36.49-6.2,88.04-31.14,154.99-70.39c4.59-2.69,9.04-5.77,13.69-8.79c67.59-43.96,6.96-87.22-58.51-121.55l-0.15-0.01
		c-1.73-0.9-3.39-1.79-4.99-2.66c-12.85-6.63-25.75-12.9-37.8-18.77c-9.93-4.84-19.28-9.4-27.52-13.64
		c-30.71-15.81-67.52,10.42-55.39,39.67C296.1,389.96,296.21,390.22,296.32,390.48L296.32,390.48z"/>
	<path class="st4" d="M180.7,545.4c1.21,69.48,21.15,144.7,114.38,153.91c81,8,178.61-54.82,236.93-99.11
		c40.77-30.97,54.78-61.43,50.14-89.85c-2.95,10.45-11.75,21.07-28.18,31.75c-193.91,126.12-244.78,96.06-255.92,4.46
		c-1.06-7.16-1.75-13.39-2.12-17.06c-2.4-24.07-3.34-59.65-5.33-100.61c-2.95-60.72-106.23-60.39-108.52,0.35
		C180.73,464.95,179.98,503.56,180.7,545.4L180.7,545.4z"/>
	<g>
		
			<linearGradient id="SVGID_1_" gradientUnits="userSpaceOnUse" x1="4913.5781" y1="3155.4412" x2="5005.8223" y2="2994.4663" gradientTransform="matrix(4.594462e-03 1 -1 4.594462e-03 3456.6768 -4466.5273)">
			<stop  offset="0.1656" style="stop-color:#FFFFFF"/>
			<stop  offset="0.2702" style="stop-color:#F5FAEE"/>
			<stop  offset="0.4765" style="stop-color:#DBEDC3"/>
			<stop  offset="0.7616" style="stop-color:#B2D97E"/>
			<stop  offset="1" style="stop-color:#8CC63F"/>
		</linearGradient>
		<path class="st5" d="M296.19,390.95c17.06,39.31,146.78,93.73,171.23,124.43c-64.6,34.27-83.92,50.64-155.89,70.94
			c36.49-6.2,88.04-31.14,154.99-70.39c4.59-2.69,9.04-5.77,13.69-8.79c67.59-43.96,6.96-87.22-58.51-121.55l-0.15-0.01
			c-1.73-0.9-3.39-1.79-4.99-2.66c-12.85-6.63-25.75-12.9-37.8-18.77c-9.93-4.84-19.28-9.4-27.52-13.64
			c-30.71-15.81-67.52,10.42-55.39,39.67C295.96,390.43,296.07,390.69,296.19,390.95L296.19,390.95z"/>
	</g>
	<path class="st6" d="M421.36,384.19c65.46,34.33,126.09,77.59,58.51,121.55c-4.64,3.02-9.1,6.1-13.69,8.79
		c-66.95,39.25-118.5,64.19-154.99,70.39c-0.98,0.28-1.96,0.55-2.96,0.83c-0.06-0.11-0.12-0.23-0.17-0.34
		c-0.38,0.05-0.75,0.11-1.12,0.16c22.32,58.21,84.31,62.36,247.03-43.48c16.43-10.69,25.23-21.3,28.18-31.75
		C572.75,452.91,479.9,408.56,421.36,384.19L421.36,384.19z"/>
	
		<linearGradient id="SVGID_00000170963263648313525770000015871024973308629645_" gradientUnits="userSpaceOnUse" x1="-17.8406" y1="362.9946" x2="-245.1513" y2="-72.4566" gradientTransform="matrix(-4.594462e-03 -1 1 -4.594462e-03 260.2921 377.6211)">
		<stop  offset="0.1656" style="stop-color:#FFFFFF"/>
		<stop  offset="0.2571" style="stop-color:#FEF7EE"/>
		<stop  offset="0.4376" style="stop-color:#FDE2C3"/>
		<stop  offset="0.6899" style="stop-color:#FAC17D"/>
		<stop  offset="1" style="stop-color:#F7931E"/>
	</linearGradient>
	<path style="fill-rule:evenodd;clip-rule:evenodd;fill:url(#SVGID_00000170963263648313525770000015871024973308629645_);" d="
		M420.82,384.07c65.46,34.33,126.09,77.59,58.51,121.55c-4.64,3.02-9.1,6.1-13.69,8.79c-66.95,39.25-118.5,64.19-154.99,70.39
		c-0.98,0.28-1.96,0.55-2.96,0.83c-0.06-0.11-0.12-0.23-0.17-0.34c-0.38,0.05-0.75,0.11-1.12,0.16
		c22.32,58.21,84.31,62.36,247.03-43.48c16.43-10.69,25.23-21.3,28.18-31.75C572.21,452.79,479.36,408.44,420.82,384.07
		L420.82,384.07z"/>
	
		<radialGradient id="SVGID_00000142890610464233558320000001553136479499485313_" cx="1163.5009" cy="1031.9254" r="109.3348" gradientTransform="matrix(1.0415 -0.1838 0.2108 0.9079 -1244.4283 -368.3231)" gradientUnits="userSpaceOnUse">
		<stop  offset="0" style="stop-color:#000000"/>
		<stop  offset="0.0712" style="stop-color:#031F0B"/>
		<stop  offset="0.2097" style="stop-color:#07561F"/>
		<stop  offset="0.3448" style="stop-color:#0B8430"/>
		<stop  offset="0.4733" style="stop-color:#0EA83D"/>
		<stop  offset="0.5932" style="stop-color:#10C146"/>
		<stop  offset="0.7016" style="stop-color:#12D14C"/>
		<stop  offset="0.7883" style="stop-color:#12D64E"/>
	</radialGradient>
	
		<ellipse style="fill:url(#SVGID_00000142890610464233558320000001553136479499485313_);" cx="235.37" cy="312.54" rx="53.56" ry="46.69"/>
</g>
<text transform="matrix(1 0 0 1 1171.7485 786.9397)" class="st0 st9 st10">.africa</text>
</svg>

